<?xml version="1.0" encoding="UTF-8"?>
<svg width="64px" height="136px" viewBox="0 0 64 136" version="1.1" xmlns="http://www.w3.org/2000/svg" xmlns:xlink="http://www.w3.org/1999/xlink">
    <title>facebook25</title>
    <g id="Page-1" stroke="none" stroke-width="1" fill="none" fill-rule="evenodd">
        <g id="Artboard" fill="#FFFFFF" fill-rule="nonzero">
            <g id="facebook25">
                <path d="M42.348,44.86 L42.348,33.293 C42.348,31.556 42.428,30.211 42.591,29.261 C42.756,28.311 43.121,27.375 43.695,26.451 C44.265,25.528 45.189,24.891 46.465,24.537 C47.742,24.183 49.44,24.007 51.559,24.007 L63.127,24.007 L63.127,0.866 L44.63,0.866 C33.928,0.866 26.243,3.406 21.572,8.483 C16.902,13.563 14.566,21.043 14.566,30.929 L14.566,44.859 L0.714,44.859 L0.714,68 L14.564,68 L14.564,135.134 L42.348,135.134 L42.348,68 L60.842,68 L63.286,44.86 L42.348,44.86 L42.348,44.86 Z" id="Path"></path>
            </g>
        </g>
    </g>
</svg>