<?xml version="1.0" encoding="UTF-8"?>
<svg width="128px" height="102px" viewBox="0 0 128 102" version="1.1" xmlns="http://www.w3.org/2000/svg" xmlns:xlink="http://www.w3.org/1999/xlink">
    <title>twitter16</title>
    <g id="Page-1" stroke="none" stroke-width="1" fill="none" fill-rule="evenodd">
        <g id="Custom-Preset" transform="translate(-25.000000, -22.000000)" fill="#FFFFFF" fill-rule="nonzero">
            <g id="twitter16" transform="translate(25.000000, 22.000000)">
                <path d="M127.994019,12.1103483 C122.959829,14.2366523 117.922649,15.5629027 112.889457,16.0969239 C118.574602,12.75 122.419526,8.02205431 124.423233,1.91308684 C119.223563,4.94018487 113.673993,7.01171755 107.772527,8.12768487 C102.573854,2.70922829 96.1859161,0 88.6047258,0 C81.3495117,0 75.1639383,2.50872584 70.0460117,7.52911169 C64.9290821,12.5494975 62.3701188,18.6183645 62.3701188,25.7366907 C62.3701188,27.6487995 62.5874363,29.6147016 63.0210744,31.6343971 C52.2997461,31.102332 42.2423327,28.4596118 32.8478373,23.7052585 C23.4533418,18.9499271 15.4803819,12.6140496 8.92895749,4.69958193 C6.54644009,8.68322338 5.35817199,13.0130983 5.35817199,17.6882288 C5.35817199,22.0973266 6.41485335,26.1875767 8.52622233,29.959957 C10.6375913,33.7313593 13.4806623,36.7868211 17.0544384,39.1243863 C12.8307036,38.9639844 8.87811716,37.8744247 5.19667918,35.8557073 L5.19667918,36.1745551 C5.19667918,42.3901312 7.18643012,47.8477102 11.165932,52.5502263 C15.1454339,57.2527424 20.1676609,60.2133323 26.2316163,61.4349302 C23.9587545,62.0217666 21.6559867,62.3151849 19.3282971,62.3151849 C17.8130559,62.3151849 16.1612436,62.1811905 14.3738571,61.9171141 C16.0535817,67.0714943 19.1388919,71.3064974 23.634772,74.6270137 C28.1276616,77.948508 33.2176757,79.6601143 38.9028208,79.767701 C29.3727512,87.0982663 18.5168455,90.764038 6.33510381,90.764038 C4.00641735,90.764038 1.89504836,90.6593855 0,90.4461683 C12.1817417,98.1493748 25.6095699,102 40.2834847,102 C49.5982306,102 58.3427672,100.55247 66.5170947,97.6574102 C74.6944129,94.7623504 81.6794754,90.8853176 87.4712855,86.0233776 C93.2650893,81.1624156 98.2604009,75.5718203 102.456223,69.2496356 C106.653043,62.928429 109.778228,56.3294531 111.836763,49.4487956 C113.894301,42.5681382 114.92307,35.6777002 114.92307,28.7696571 C114.92307,27.2830048 114.896154,26.1680155 114.841326,25.4227332 C119.988162,21.7589176 124.374387,17.322434 128,12.1171947 L127.994019,12.1103483 Z" id="Path"></path>
            </g>
        </g>
    </g>
</svg>