<?xml version="1.0" encoding="UTF-8"?>
<svg width="122px" height="146px" viewBox="0 0 122 146" version="1.1" xmlns="http://www.w3.org/2000/svg" xmlns:xlink="http://www.w3.org/1999/xlink">
    <title>youtube15</title>
    <g id="Page-1" stroke="none" stroke-width="1" fill="none" fill-rule="evenodd">
        <g id="Custom-Preset" transform="translate(-219.000000, -14.000000)" fill="#FFFFFF" fill-rule="nonzero">
            <g id="youtube15" transform="translate(219.000000, 14.000000)">
                <path d="M119.254,75.443 C118.549,72.238 116.986,69.55 114.57,67.378 C112.152,65.206 109.368,63.928 106.217,63.548 C96.224,62.463 81.152,61.92 60.999,61.92 C40.844,61.92 25.799,62.463 15.859,63.55 C12.655,63.93 9.859,65.206 7.469,67.378 C5.079,69.551 3.502,72.238 2.741,75.443 C1.329,81.745 0.623,91.25 0.623,103.96 C0.623,116.887 1.329,126.393 2.741,132.477 C3.448,135.68 5.011,138.37 7.427,140.541 C9.843,142.717 12.627,143.966 15.777,144.291 C25.776,145.43 40.85,146 61,146 C81.15,146 96.225,145.43 106.217,144.29 C109.367,143.963 112.137,142.714 114.527,140.54 C116.919,138.37 118.494,135.68 119.254,132.477 C120.666,126.175 121.374,116.67 121.374,103.96 C121.372,91.033 120.664,81.527 119.254,75.443 Z M35.092,83.673 L26.374,83.673 L26.374,130.031 L18.227,130.031 L18.227,83.677 L9.672,83.677 L9.672,76.017 L35.092,76.017 L35.092,83.677 L35.092,83.673 Z M57.089,130.031 L49.835,130.031 L49.835,125.631 C46.902,128.948 44.131,130.601 41.525,130.601 C39.025,130.601 37.45,129.599 36.799,127.591 C36.366,126.286 36.149,124.303 36.149,121.641 L36.149,89.783 L43.399,89.783 L43.399,119.439 C43.399,121.176 43.426,122.127 43.481,122.289 C43.644,123.431 44.214,124.001 45.191,124.001 C46.658,124.001 48.207,122.861 49.836,120.579 L49.836,89.783 L57.086,89.783 L57.086,130.031 L57.089,130.031 Z M84.789,117.976 C84.789,121.941 84.543,124.658 84.059,126.126 C83.131,129.11 81.204,130.604 78.271,130.604 C75.664,130.604 73.138,129.111 70.693,126.126 L70.693,130.036 L63.443,130.036 L63.443,76.016 L70.693,76.016 L70.693,93.696 C73.03,90.766 75.553,89.296 78.271,89.296 C81.204,89.296 83.131,90.819 84.056,93.86 C84.542,95.27 84.786,97.96 84.786,101.923 L84.786,117.971 L84.789,117.976 Z M112.325,111.296 L97.742,111.296 L97.742,118.384 C97.742,122.134 98.99,124.006 101.489,124.006 C103.282,124.006 104.369,123.029 104.749,121.072 C104.857,120.53 104.912,118.872 104.912,116.102 L112.326,116.102 L112.326,117.162 C112.326,119.825 112.271,121.399 112.163,121.89 C112.001,123.355 111.433,124.822 110.453,126.288 C108.497,129.168 105.563,130.606 101.653,130.606 C97.905,130.606 94.973,129.222 92.853,126.453 C91.279,124.443 90.491,121.293 90.491,117.003 L90.491,102.903 C90.491,98.613 91.251,95.463 92.771,93.453 C94.891,90.683 97.796,89.299 101.491,89.299 C105.131,89.299 108.011,90.683 110.126,93.453 C111.594,95.463 112.326,98.613 112.326,102.903 L112.326,111.295 L112.325,111.296 Z" id="Shape"></path>
                <path d="M74.36,95.895 C73.11,95.895 71.89,96.495 70.695,97.688 L70.695,122.21 C71.89,123.404 73.111,124.002 74.361,124.002 C76.481,124.002 77.541,122.184 77.541,118.542 L77.541,101.354 C77.541,97.714 76.481,95.894 74.361,95.894 L74.36,95.895 Z M101.41,95.895 C98.967,95.895 97.745,97.742 97.745,101.435 L97.745,105.182 L105.077,105.182 L105.077,101.434 C105.077,97.74 103.854,95.894 101.411,95.894 L101.41,95.895 Z M30.368,32.508 L30.368,54.588 L38.515,54.588 L38.515,32.508 L48.372,0 L40.062,0 L34.522,21.428 L28.74,0 L20.104,0 C21.624,4.563 23.39,9.64 25.4,15.236 C27.953,22.731 29.61,28.489 30.37,32.508 L30.368,32.508 Z M59.29,55.158 C63.037,55.158 65.915,53.773 67.925,51.003 C69.445,48.993 70.205,45.788 70.205,41.389 L70.205,27.13 C70.205,22.786 69.445,19.608 67.925,17.598 C65.915,14.828 63.037,13.443 59.289,13.443 C55.649,13.443 52.794,14.828 50.731,17.598 C49.211,19.608 48.451,22.786 48.451,27.131 L48.451,41.391 C48.451,45.737 49.211,48.941 50.731,51.006 C52.795,53.776 55.646,55.161 59.286,55.161 L59.29,55.158 Z M55.785,25.664 C55.785,21.916 56.953,20.042 59.289,20.042 C61.625,20.042 62.789,21.916 62.789,25.664 L62.789,42.774 C62.789,46.576 61.622,48.476 59.286,48.476 C56.95,48.476 55.781,46.576 55.781,42.773 L55.781,25.663 L55.785,25.664 Z M81.693,55.158 C84.41,55.158 87.208,53.474 90.086,50.106 L90.086,54.586 L97.5,54.586 L97.5,13.933 L90.086,13.933 L90.086,44.973 C88.456,47.31 86.909,48.477 85.441,48.477 C84.465,48.477 83.895,47.88 83.731,46.685 C83.678,46.575 83.651,45.625 83.651,43.833 L83.651,13.933 L76.237,13.933 L76.237,46.033 C76.237,48.803 76.455,50.84 76.889,52.143 C77.596,54.153 79.199,55.159 81.696,55.159 L81.693,55.158 Z" id="Shape"></path>
            </g>
        </g>
    </g>
</svg>